<?xml version="1.0" encoding="UTF-8"?>
<svg width="528px" height="764px" viewBox="0 0 528 764" version="1.1" xmlns="http://www.w3.org/2000/svg" xmlns:xlink="http://www.w3.org/1999/xlink">
    <title>Fill 16</title>
    <defs>
        <linearGradient x1="-1.65975104e-05%" y1="50.0000851%" x2="99.9999834%" y2="50.0000851%" id="linearGradient-1">
            <stop stop-color="#FF3900" offset="0%"></stop>
            <stop stop-color="#003987" offset="100%"></stop>
        </linearGradient>
    </defs>
    <g id="Page-1" stroke="none" stroke-width="1" fill="none" fill-rule="evenodd">
        <g id="Group-18" fill="url(#linearGradient-1)">
            <path d="M528,19.3435054 C524.345627,32.9181294 519.236515,45.1432248 512.6639,55.9928694 C506.091286,66.8558678 498.05517,77.0425308 488.564315,86.5426467 C481.991701,93.3303515 476.321726,99.4425065 471.589444,104.867329 C466.839635,110.292151 464.46473,117.75462 464.46473,127.254736 C464.46473,129.292383 463.921394,132.017362 462.825959,135.404538 C461.730523,138.804282 460.267021,141.860752 458.444216,144.573163 C456.603884,147.285574 454.413012,149.151191 451.871602,150.170015 C449.312664,151.188838 446.569693,149.997985 443.651452,146.598241 C442.18795,145.247927 441.460581,142.707546 441.460581,138.976311 C441.460581,135.245077 441.819884,130.998539 442.556017,126.248481 C443.283386,121.498423 444.203552,117.092424 445.298988,113.01713 C446.394423,108.942622 446.937759,105.886152 446.937759,103.848505 C448.392498,94.3491749 450.776166,86.0391265 454.062473,78.9081481 C457.34878,71.7897381 462.273859,64.4867302 468.846473,57.0116928 C471.037344,54.9748315 475.22629,50.0653123 481.448365,42.2587841 C487.652913,34.4530415 494.225527,27.5058755 501.166207,21.3937206 C508.089361,15.2807801 514.311436,11.206272 519.788614,9.16862517 C525.265793,7.13097835 528,10.5307222 528,19.3435054 Z M290.290456,125.229658 C288.826954,123.879343 288.283618,123.879343 288.651685,125.229658 C289.002224,126.579972 289.554324,126.579972 290.290456,125.229658 Z M271.66805,233.140888 C268.013676,233.140888 265.279469,234.502985 263.456664,237.216182 C261.616332,239.928593 259.618257,242.813034 257.427386,245.868718 C255.236515,248.925189 252.852846,251.134079 250.311436,252.484394 C247.752498,253.834708 243.914091,252.484394 238.804979,248.409885 C234.423237,245.021924 232.039568,241.11866 231.689029,236.700093 C231.320963,232.294094 231.689029,228.047557 232.784465,223.972263 C233.8799,219.897755 234.782539,215.83503 235.518672,211.759736 C236.246041,207.685228 235.518672,203.953993 233.327801,200.554249 C229.673427,198.529171 224.371519,199.547209 217.448365,203.622503 C210.507685,207.697011 203.382971,212.60653 196.082988,218.375411 C188.774241,224.144292 182.026357,229.913174 175.821809,235.68127 C169.599734,241.450151 165.770091,245.696689 164.315353,248.409885 C159.93361,255.872354 159.390274,259.946863 162.676581,260.621627 C165.962888,261.30896 171.24727,261.64045 178.556017,261.64045 C198.273859,261.64045 216.896266,264.696921 234.423237,270.809075 C252.677577,276.92123 269.836481,285.734014 285.908714,297.271776 C292.481328,302.033617 297.222373,303.899234 300.149378,302.880411 C303.067618,301.861588 301.972183,297.283559 296.863071,289.133757 C289.554324,286.421346 283.174506,283.193632 277.697328,279.462398 C272.220149,275.731163 268.741046,269.790252 267.286307,261.64045 C265.822805,255.540864 266.550174,250.287285 269.477178,245.868718 C272.395419,241.450151 273.858921,236.528849 273.858921,231.103241 C273.858921,229.753713 273.490855,229.581683 272.763485,230.600507 C272.027353,231.61933 271.66805,232.466124 271.66805,233.140888 Z M160.801195,326.790162 C165.901544,324.765084 170.660116,324.765084 175.041859,326.801945 C179.423602,328.839592 183.060448,331.883494 185.996216,335.958787 C188.92322,340.033295 191.289361,344.623892 193.129693,349.705441 C194.952498,354.798772 195.8639,359.376801 195.8639,363.439526 C195.8639,366.83927 194.952498,371.933387 193.129693,378.720306 C191.289361,385.508011 189.282523,392.46696 187.091651,399.586155 C184.90078,406.718705 183.253245,413.332809 182.157809,419.444178 C181.062373,425.555548 181.237643,429.616702 182.709909,431.659062 C188.555154,421.478683 192.577593,411.133344 194.768465,400.607335 C196.959336,390.086039 201.700382,380.07062 209.009129,370.570504 C214.84561,363.108035 221.058921,357.339154 227.631535,353.264646 C234.204149,349.189352 239.313261,342.745706 242.967635,333.92114 C248.076747,322.383378 252.28322,318.480899 255.569527,322.212134 C258.855834,325.943368 261.590041,332.398797 263.780913,341.555639 C265.971784,350.724264 267.61932,360.395624 268.714755,370.570504 C269.810191,380.757953 271.080896,386.182775 272.544398,386.858325 C277.65351,384.820678 281.667187,381.089444 284.594191,375.664621 C287.512432,370.239014 289.703303,364.298888 291.166805,357.842674 C292.621544,351.399028 293.16488,345.127412 292.81434,339.014472 C292.446274,332.902317 291.166805,327.820768 288.975934,323.74626 C282.40332,310.858969 270.71283,300.340029 253.921992,292.190228 C237.12239,284.040426 221.418224,279.290368 206.818257,277.928271 C199.50951,277.252721 191.841461,276.749986 183.805344,276.405927 C175.760465,276.062654 168.469245,276.909448 161.896631,278.947094 C155.324017,280.309191 151.844913,284.212455 151.48561,290.656101 C151.117544,297.112315 150.565444,303.039872 149.846838,308.46548 C149.101942,315.939732 148.558606,323.07071 148.199303,329.858415 C147.831237,336.64612 146.911071,343.76453 145.465095,351.226999 C144.720199,357.339154 143.449494,366.005044 141.626689,377.198748 C139.79512,388.392452 140.338456,396.701714 143.274224,402.123395 C147.655967,402.814655 151.117544,399.75897 153.676481,392.97048 C156.226656,386.182775 158.058224,378.205003 159.15366,369.048946 C160.249095,359.892104 160.801195,351.067538 160.801195,342.574462 C160.801195,334.09317 160.801195,328.827809 160.801195,326.790162 C161.519801,326.790162 161.896631,327.305465 161.896631,328.324289 C161.896631,329.343112 161.896631,330.361935 161.896631,331.380759 C161.896631,332.398797 161.703834,332.742856 161.344531,332.398797 C160.976465,332.055523 160.801195,330.189906 160.801195,326.790162 Z M229.717245,473.386047 C217.299386,480.864226 202.874689,484.438356 186.443154,484.092726 C170.011618,483.747096 154.859552,484.265541 140.986954,485.616641 C132.950838,486.300046 125.282788,489.68565 117.982805,495.789165 C114.328432,498.51493 111.585461,499.528254 109.762656,498.844849 C107.931087,498.169299 106.476349,496.645385 105.380913,494.26525 C104.285477,491.885115 103.374075,489.512835 102.646705,487.1327 C101.901809,484.768276 100.806373,483.574281 99.3603983,483.574281 C89.1421743,499.190479 81.8597178,515.144453 77.4779751,531.428346 C73.0962324,547.720094 70.5460581,564.679537 69.8186888,582.31453 C69.8186888,589.792709 69.4506224,598.449173 68.7232531,608.291777 C67.9871203,618.134381 65.9890456,627.120765 62.7027386,635.266639 C59.4164315,643.420369 54.5001162,650.034473 47.945029,655.116807 C41.3724149,660.206997 32.25839,661.730911 20.5941909,659.688551 C19.1303636,667.842281 18.7626224,677.684885 19.4987552,689.224218 C20.2261245,700.763552 22.7762988,711.454521 27.1580415,721.297125 C31.5397842,731.139729 37.5515353,738.602198 45.2020581,743.684532 C52.8525809,748.774722 63.2460747,748.271987 76.3825394,742.160618 C88.0467386,736.732653 96.4421577,728.586779 101.55127,717.722995 C106.660382,706.874922 109.946689,695.665508 111.410191,684.126174 C112.856166,673.2781 115.047037,661.738766 117.982805,649.516028 C120.901046,637.301144 121.996481,625.769666 121.269112,614.905882 C116.142473,614.230332 111.953527,614.575962 108.66722,615.927062 C105.380913,617.270306 102.821975,617.945856 100.99917,617.945856 C99.1676017,617.945856 97.8968963,616.940386 97.169527,614.905882 C96.4246307,612.871377 96.4246307,608.118962 97.169527,600.640783 C98.6155021,591.143809 100.455834,580.295735 102.646705,568.065141 C104.837577,555.858113 108.851253,545.339959 114.696498,536.51068 C124.905959,518.184427 135.509776,516.495552 146.464133,531.420491 C160.33673,529.378131 174.577394,528.875396 189.186124,529.896576 C203.777328,530.917756 218.394822,530.744941 233.003552,529.378131 C260.739983,528.034886 283.744133,522.764026 302.016,513.612683 C320.27034,504.453484 338.165378,490.3612 355.692349,471.359397 C358.610589,467.290388 363.167602,459.655104 369.380913,448.4614 C375.585461,437.267696 381.062639,425.382732 385.812448,412.830074 C390.553494,400.26956 393.287701,388.220422 394.032598,376.682659 C394.759967,365.145682 391.841726,357.339154 385.269112,353.264646 C382.333344,354.626743 379.967203,357.16791 378.144398,360.899144 C376.31283,364.630379 374.665295,368.202152 373.21932,371.589328 C371.755817,374.989072 369.740216,377.701483 367.190041,379.739129 C364.631104,381.776776 360.801461,382.108267 355.692349,380.757953 C354.228846,380.757953 352.213245,382.966844 349.663071,387.373628 C347.104133,391.792195 344.545195,396.873744 341.995021,402.64184 C339.436083,408.407579 337.069942,413.851254 334.879071,418.925733 C332.688199,424.023778 331.224697,427.252277 330.497328,428.603377 C326.115585,436.065846 319.89351,444.038905 311.874921,452.522554 C303.838805,461.014059 295.07532,468.303713 285.584465,474.422937 C276.076083,480.534307 266.409959,483.919911 256.551037,484.595461 C246.692116,485.278866 237.735834,481.539776 229.717245,473.386047 C225.335502,476.111812 224.415336,477.132992 226.974274,476.441731 C229.524448,475.766182 230.444614,474.752857 229.717245,473.386047 Z M430.06805,375.664621 C432.98629,373.626975 435.545228,371.085807 437.7361,368.030123 C439.926971,364.973652 442.117842,362.089212 444.308714,359.376801 C446.499585,356.66439 449.049759,355.142831 451.976763,354.798772 C454.895004,354.455499 458.549378,355.989625 462.93112,359.376801 C465.849361,366.83927 466.944797,375.835865 466.217427,386.354805 C465.481295,396.873744 464.026556,405.87034 461.835685,413.332809 C456.717809,434.369116 444.115917,452.522554 424.047535,467.793123 C403.961627,483.063691 384.78712,495.459245 366.53278,504.956219 C343.160564,517.178957 319.981145,526.683787 296.976996,533.470706 C273.972846,540.257625 248.585029,544.318779 220.839834,545.669879 C210.612846,547.028834 203.312863,548.568459 198.93112,550.257334 C194.549378,551.954063 193.085876,558.568168 194.549378,570.107501 C196.004116,578.253376 193.813245,586.218579 187.976763,594.026679 C182.131519,601.834778 176.65434,609.140142 171.545228,615.927062 C172.999967,615.927062 175.190838,614.905882 178.117842,612.871377 C181.036083,610.829017 184.14712,608.291777 187.433427,605.236093 C190.719734,602.180408 193.813245,599.289683 196.740249,596.579629 C199.65849,593.869574 201.481295,591.827214 202.217427,590.468259 C203.672166,588.433754 204.767602,585.385925 205.503734,581.30906 C206.231104,577.240051 208.421975,574.522141 212.076349,573.163186 C216.458091,571.812086 220.296498,572.833266 223.582805,576.218871 C226.869112,579.604475 228.139817,583.33571 227.412448,587.412574 C225.948946,610.483387 219.551602,629.5009 208.246705,644.425838 C196.924282,659.358632 182.858888,674.6292 166.06805,690.229688 C158.759303,697.707867 152.011419,705.178192 145.806871,712.640661 C139.584797,720.10313 133.204979,727.235679 126.632365,734.022599 C120.059751,740.809518 112.575734,746.748072 104.180315,751.830406 C95.7673693,756.928451 86.1012448,760.486871 75.146888,762.521375 C60.5381577,765.23143 48.4883651,764.218105 38.9975104,759.465691 C29.4978921,754.713276 21.9087137,748.099172 16.2124481,739.607668 C10.5161826,731.124019 6.37981743,721.281415 3.83840664,710.087711 C1.27946888,698.894007 -5.68434189e-14,688.203038 -5.68434189e-14,678.014804 C0.727369295,655.627397 2.37490456,633.232135 4.93384232,610.829017 C7.47525311,588.44161 9.49085477,566.046347 10.9543568,543.643229 C12.1199004,519.896867 12.4090954,496.14265 11.8307054,472.380577 C11.2435519,448.618505 11.5327469,424.872143 12.7070539,401.11007 C14.1617925,379.395856 16.7207303,357.16791 20.3751037,334.436443 C24.0207137,311.705763 24.7568465,289.477817 22.5659751,267.753391 C20.3751037,245.365984 24.2135104,223.812802 34.0724315,203.107199 C43.9313527,182.41338 58.3472863,165.266982 77.3377593,151.692358 C83.9103734,146.954083 91.5784232,142.535516 100.341909,138.461008 C109.105394,134.385714 117.676083,129.979715 126.089029,125.229658 C134.484448,120.4796 142.152498,115.054777 149.093178,108.942622 C156.016332,102.829682 161.318241,95.7112719 164.972614,87.5614702 C165.699983,85.5238233 167.347519,82.4681386 169.906456,78.392845 C172.447867,74.3183369 175.190838,70.7583463 178.117842,67.7026616 C181.036083,64.6587598 183.954324,63.1246332 186.881328,63.1246332 C189.799568,63.1246332 192.358506,66.1803179 194.549378,72.28069 C196.004116,76.3551982 197.099552,80.7737654 197.835685,85.5238233 C198.563054,90.2738813 198.563054,95.0239392 197.835685,99.7739972 C196.372183,105.886152 193.261145,111.986524 188.528863,118.098679 C183.779054,124.210834 181.404149,130.311206 181.404149,136.423361 C181.404149,140.498655 183.402224,142.204025 187.433427,141.516693 C191.447104,140.841928 195.828846,139.32037 200.578656,136.938664 C205.310938,134.557744 209.885477,131.673303 214.26722,128.286128 C218.648963,124.898167 221.199137,122.86052 221.93527,122.173187 C229.962622,114.710718 237.998739,107.408496 246.034855,100.2893 C254.062207,93.1708903 261.730257,85.5238233 269.039004,77.3740216 C277.066357,67.8739057 286.197909,60.0807314 296.424896,53.9677909 C306.64312,47.855636 317.238174,42.4308137 328.192531,37.6807557 C339.146888,32.9306978 349.908448,28.1806398 360.512266,23.4305819 C371.098556,18.6805239 381.500813,12.9124281 391.727801,6.11215494 C393.918672,4.76262632 397.012183,3.39974381 401.043386,2.03764682 C405.057062,0.687332679 408.886705,0 412.541079,0 C416.186689,0 418.570357,0.859362229 419.665793,2.55294995 C420.761228,4.24653767 419.472996,7.13097835 415.827386,11.206272 C409.254772,18.6687411 402.314091,25.971749 395.014108,33.090159 C387.705361,40.2211373 380.405378,47.5123624 373.105394,54.9748315 C365.069278,63.1246332 357.401228,71.445679 350.101245,79.9269715 C342.792498,88.408264 337.683386,98.4111147 334.765145,109.948877 C331.838141,118.786012 332.758307,126.591755 337.508116,133.379459 C342.240398,140.167164 350.460548,140.841928 362.151037,135.404538 C370.914523,130.65448 377.487137,124.542325 381.86888,117.079856 C386.250622,109.617387 390.264299,101.480153 393.918672,92.6430188 C395.373411,89.9423906 396.661643,86.211156 397.757079,81.4493152 C398.852515,76.6992573 401.218656,73.642787 404.873029,72.28069 C409.254772,70.2556116 413.093178,70.5988852 416.379485,73.3112963 C419.665793,76.0237074 421.304564,79.4116684 421.304564,83.4861765 C421.304564,92.3115281 421.488598,101.480153 421.856664,110.979484 C422.207203,120.4796 421.663867,129.648225 420.209129,138.461008 C417.282124,149.997985 411.997743,160.185434 404.329693,168.998217 C396.661643,177.822783 390.264299,187.666173 385.155187,198.529171 C380.773444,209.391384 380.580647,216.522362 384.611851,219.909538 C388.625527,223.297499 394.277975,224.659596 401.586722,223.972263 C408.886705,223.297499 416.730025,220.928361 425.142971,216.853853 C433.53839,212.778559 439.926971,208.704051 444.308714,204.628758 C450.145195,197.853621 454.719734,190.722643 458.006041,183.260174 C461.292349,175.797705 465.849361,168.998217 471.694606,162.886062 C474.612846,160.860198 477.899154,159.510669 481.553527,158.823337 C485.199137,158.147787 488.678241,158.319816 491.964548,159.33864 C495.250855,160.357463 497.441726,161.707777 498.537162,163.401365 C499.632598,165.094953 499.083745,166.96057 496.889627,168.998217 C490.317012,174.435608 485.742473,181.898077 483.201062,191.397407 C480.642124,200.897523 478.626523,211.084972 477.171784,221.934616 C475.708282,232.797615 474.437577,243.487798 473.342141,254.006737 C472.246705,264.537459 470.231104,273.521487 467.312863,280.983956 C465.849361,284.3837 462.387784,290.667884 456.910606,299.824726 C451.433427,308.980783 445.956249,318.996202 440.479071,329.845847 C435.001892,340.708845 430.795419,350.552235 427.877178,359.376801 C424.950174,368.202152 425.686307,373.626975 430.06805,375.664621 C432.258921,374.314307 432.442954,373.799004 430.620149,374.142278 C428.779817,374.486337 428.604548,374.989072 430.06805,375.664621 L430.06805,375.664621 Z" id="Fill-16"></path>
        </g>
    </g>
</svg>